<svg width="16" height="16" viewBox="0 0 16 16" fill="none" xmlns="http://www.w3.org/2000/svg">
<g id="border_color">
<mask id="mask0_13_2901" style="mask-type:alpha" maskUnits="userSpaceOnUse" x="0" y="0" width="16" height="16">
<rect id="Bounding box" width="16" height="16" fill="#D9D9D9"/>
</mask>
<g mask="url(#mask0_13_2901)">
<path id="border_color_2" d="M1.33337 16V13.3334H14.6667V16H1.33337ZM2.66671 12V9.50004L8.70004 3.46671L11.2 5.96671L5.16671 12H2.66671ZM4.00004 10.6667H4.60004L9.33337 5.96671L8.70004 5.33337L4.00004 10.0667V10.6667ZM11.95 5.23337L9.45004 2.73337L10.65 1.53337C10.7723 1.40004 10.9278 1.33604 11.1167 1.34137C11.3056 1.34715 11.4612 1.41115 11.5834 1.53337L13.15 3.10004C13.2723 3.22226 13.3334 3.37515 13.3334 3.55871C13.3334 3.74182 13.2723 3.90004 13.15 4.03337L11.95 5.23337Z" fill="#4487D9"/>
</g>
</g>
</svg>
