<svg width="20" height="20" viewBox="0 0 20 20" fill="none" xmlns="http://www.w3.org/2000/svg">
<g id="icon/action/visibility_off_24px">
<path id="icon/action/visibility_off_24px_2" fill-rule="evenodd" clip-rule="evenodd" d="M3.90825 5.43749L1.67492 3.20416L2.84992 2.02083L17.6249 16.8042L16.4499 17.9792L13.5999 15.1292C12.4833 15.5708 11.2666 15.8125 9.99992 15.8125C5.83325 15.8125 2.27492 13.2208 0.833252 9.56249C1.47492 7.92083 2.54992 6.50416 3.90825 5.43749ZM9.99992 4.97916C13.1583 4.97916 15.9749 6.75416 17.3499 9.56249C16.8583 10.5792 16.1666 11.4542 15.3416 12.1625L16.5166 13.3375C17.6749 12.3125 18.5916 11.0292 19.1666 9.56249C17.7249 5.90416 14.1666 3.31249 9.99992 3.31249C8.94159 3.31249 7.92492 3.47916 6.96659 3.7875L8.34159 5.16249C8.88325 5.05416 9.43325 4.97916 9.99992 4.97916ZM9.10825 5.92916L10.8333 7.65416C11.3083 7.86249 11.6916 8.24583 11.8999 8.72083L13.6249 10.4458C13.6916 10.1625 13.7416 9.86249 13.7416 9.55416C13.7499 7.48749 12.0666 5.81249 9.99992 5.81249C9.69159 5.81249 9.39992 5.85416 9.10825 5.92916ZM7.92492 9.45416L10.0999 11.6292C10.0666 11.6375 10.0333 11.6458 9.99992 11.6458C8.84992 11.6458 7.91658 10.7125 7.91658 9.56249C7.91658 9.54166 7.91867 9.52499 7.92075 9.50833C7.92283 9.49166 7.92492 9.47499 7.92492 9.45416ZM6.54992 8.07916L5.09159 6.62083C4.08325 7.3875 3.23325 8.37083 2.64992 9.5625C4.02492 12.3708 6.84159 14.1458 9.99992 14.1458C10.7916 14.1458 11.5583 14.0292 12.2916 13.8292L11.4749 13.0125C11.0249 13.2042 10.5249 13.3125 9.99992 13.3125C7.93325 13.3125 6.24992 11.6292 6.24992 9.5625C6.24992 9.0375 6.35825 8.5375 6.54992 8.07916Z" fill="#0B0B0B"/>
</g>
</svg>
