<svg width="16" height="16" viewBox="0 0 16 16" fill="none" xmlns="http://www.w3.org/2000/svg">
<g id="info">
<mask id="mask0_16_2804" style="mask-type:alpha" maskUnits="userSpaceOnUse" x="0" y="0" width="16" height="16">
<rect id="Bounding box" width="16" height="16" fill="#D9D9D9"/>
</mask>
<g mask="url(#mask0_16_2804)">
<path id="info_2" d="M7.33325 11.3333H8.66658V7.33334H7.33325V11.3333ZM7.99992 6C8.18881 6 8.34725 5.936 8.47525 5.808C8.60281 5.68045 8.66658 5.52222 8.66658 5.33334C8.66658 5.14445 8.60281 4.986 8.47525 4.858C8.34725 4.73045 8.18881 4.66667 7.99992 4.66667C7.81103 4.66667 7.65281 4.73045 7.52525 4.858C7.39725 4.986 7.33325 5.14445 7.33325 5.33334C7.33325 5.52222 7.39725 5.68045 7.52525 5.808C7.65281 5.936 7.81103 6 7.99992 6ZM7.99992 14.6667C7.0777 14.6667 6.21103 14.4916 5.39992 14.1413C4.58881 13.7916 3.88325 13.3167 3.28325 12.7167C2.68325 12.1167 2.20836 11.4111 1.85859 10.6C1.50836 9.78889 1.33325 8.92222 1.33325 8C1.33325 7.07778 1.50836 6.21111 1.85859 5.4C2.20836 4.58889 2.68325 3.88334 3.28325 3.28334C3.88325 2.68334 4.58881 2.20822 5.39992 1.858C6.21103 1.50822 7.0777 1.33334 7.99992 1.33334C8.92214 1.33334 9.78881 1.50822 10.5999 1.858C11.411 2.20822 12.1166 2.68334 12.7166 3.28334C13.3166 3.88334 13.7915 4.58889 14.1413 5.4C14.4915 6.21111 14.6666 7.07778 14.6666 8C14.6666 8.92222 14.4915 9.78889 14.1413 10.6C13.7915 11.4111 13.3166 12.1167 12.7166 12.7167C12.1166 13.3167 11.411 13.7916 10.5999 14.1413C9.78881 14.4916 8.92214 14.6667 7.99992 14.6667ZM7.99992 13.3333C9.48881 13.3333 10.7499 12.8167 11.7833 11.7833C12.8166 10.75 13.3333 9.48889 13.3333 8C13.3333 6.51111 12.8166 5.25 11.7833 4.21667C10.7499 3.18334 9.48881 2.66667 7.99992 2.66667C6.51103 2.66667 5.24992 3.18334 4.21658 4.21667C3.18325 5.25 2.66659 6.51111 2.66659 8C2.66659 9.48889 3.18325 10.75 4.21658 11.7833C5.24992 12.8167 6.51103 13.3333 7.99992 13.3333Z" fill="#4487D9"/>
</g>
</g>
</svg>
