<svg width="1281" height="548" viewBox="0 0 1281 548" fill="none" xmlns="http://www.w3.org/2000/svg">
<path opacity="0.05" d="M-305 164.319C-305 164.319 -240.422 359.463 10.097 502.346C260.616 645.228 154.096 -22.2685 47.5762 34.3296C-58.9438 90.9277 272.823 429.47 462.807 242.011C831.189 -121.477 274.214 541.329 491.903 399.685C585.108 339.039 778 -21.5497 864.229 34.3296C968.119 109.945 625.846 275.86 727.765 324.823C730.412 326.095 733.116 327.775 735.518 329.466C823.788 391.606 1216.54 98.0777 1110 34.3296C1002 -30.2911 978.043 269.4 1076.67 326.713C1175.3 384.025 1405.21 77.823 1457.98 94.5868C1510.75 111.351 1430.36 201.087 1489.54 242.011C1548.72 282.935 1793 265.825 1793 265.825" stroke="#C1D7F2" stroke-width="50" stroke-linejoin="round"/>
</svg>
